<svg width="183" height="40" viewBox="0 0 183 40" fill="none" xmlns="http://www.w3.org/2000/svg">
<g id="svgexport-7 (1) 1">
<path id="Vector" d="M4.49227 21.1473C4.49227 25.3888 5.63207 26.231 7.55174 26.231C9.23144 26.231 10.1013 24.8775 10.1913 23.3432H12.8808C12.8808 26.7125 10.7812 28.2466 7.60173 28.2466C4.42229 28.2466 1.85274 27.2439 1.85274 20.5858C1.85274 16.1336 2.35264 12.4636 7.60173 12.4636C11.921 12.4636 13.0008 14.84 13.0008 19.8538V21.1473H4.49227ZM10.3912 19.2822C10.3912 14.8702 9.16146 14.3288 7.39176 14.3288C5.83204 14.3288 4.54227 15.0808 4.50228 19.2822H10.3912Z" fill="white"/>
<path id="Vector_2" d="M25.2886 27.9456V17.4269C25.2886 15.7925 24.7287 14.4188 22.6191 14.4188C19.9296 14.4188 19.5397 16.8254 19.5397 18.9111V27.9356H17.08V15.9129C17.08 14.8599 17.02 13.8071 16.9301 12.7543H19.5397V14.7096H19.6596C20.0176 13.9586 20.5998 13.338 21.3254 12.9337C22.0509 12.5294 22.884 12.3616 23.7089 12.4534C26.9383 12.4534 27.7082 14.4589 27.7082 17.4671V27.9456H25.2886Z" fill="white"/>
<path id="Vector_3" d="M34.4673 21.1473C34.4673 25.3888 35.6071 26.231 37.5267 26.231C39.2065 26.231 40.0763 24.8775 40.1664 23.3432H42.8659C42.8659 26.7125 40.7662 28.2466 37.5868 28.2466C34.4073 28.2466 31.8377 27.2439 31.8377 20.5858C31.8377 16.1336 32.3477 12.4636 37.5868 12.4636C41.906 12.4636 42.9858 14.84 42.9858 19.8538V21.1473H34.4673ZM40.3762 19.2822C40.3762 14.8702 39.1466 14.3288 37.3767 14.3288C35.8171 14.3288 34.5272 15.0808 34.4974 19.2822H40.3762Z" fill="white"/>
<path id="Vector_4" d="M49.6043 15.0506H49.6643C50.6641 12.7344 51.944 12.4636 54.3436 12.4636V15.0206C53.9065 14.9543 53.4656 14.9175 53.0238 14.9103C50.2943 14.9103 49.6043 16.9859 49.6043 19.0315V27.9458H47.1448V12.7644H49.6043V15.0506Z" fill="white"/>
<path id="Vector_5" d="M65.0416 12.7644H67.5011V29.48C67.5011 32.8792 65.2515 33.6914 61.922 33.6914C59.4025 33.6914 57.123 32.428 57.3429 29.6805H60.0925C60.0796 29.9827 60.1315 30.2842 60.2447 30.5645C60.358 30.845 60.5298 31.0977 60.7487 31.3058C60.9676 31.514 61.2285 31.6725 61.5136 31.7711C61.7988 31.8695 62.1018 31.9054 62.402 31.8765C62.7544 31.91 63.1098 31.8655 63.4431 31.7462C63.7765 31.6271 64.0797 31.436 64.3314 31.1864C64.5831 30.9368 64.7771 30.635 64.8998 30.302C65.0226 29.969 65.0709 29.6131 65.0416 29.2594V26.0507H64.9516C64.6143 26.6345 64.1282 27.1178 63.543 27.4508C62.9579 27.784 62.2949 27.9548 61.6221 27.9458C57.5129 27.9458 56.703 24.3961 56.703 19.924C56.703 12.9048 60.2124 12.4937 61.4422 12.4937C62.1814 12.4533 62.9154 12.6387 63.5473 13.0254C64.1792 13.4121 64.6793 13.9819 64.9816 14.6597H65.0416V12.7644ZM62.1721 14.5092C59.3825 14.5092 59.2926 17.8784 59.2926 19.8838C59.2926 24.7571 60.4024 25.9002 62.232 25.9002C65.2315 25.9002 65.1115 22.3907 65.1115 20.275C65.1115 18.1591 65.2615 14.5092 62.1721 14.5092Z" fill="white"/>
<path id="Vector_6" d="M76.5894 25.1178H76.6494L80.2788 12.7642H82.9383L76.0795 33.6911H73.53L75.2396 27.9455L70.1106 12.7642H72.9601L76.5894 25.1178Z" fill="white"/>
<path id="Vector_7" d="M89.7676 28.2466C86.4981 28.2466 84.4585 26.8027 84.5484 23.3131H87.338C87.338 24.1856 87.338 26.2311 89.8576 26.2311C91.3273 26.2311 92.467 25.4791 92.467 23.9149C92.467 21.2074 84.9084 21.1473 84.9084 16.6049C84.9084 15.0206 85.9082 12.4536 90.1175 12.4536C92.817 12.4536 95.1167 13.7471 94.9167 16.7553H92.2271C92.2777 16.4299 92.2523 16.0971 92.1526 15.7833C92.0531 15.4694 91.8821 15.183 91.6534 14.9467C91.4245 14.7104 91.1441 14.5307 90.8342 14.4217C90.5244 14.3127 90.1934 14.2775 89.8676 14.3187C89.5798 14.2806 89.2873 14.3037 89.009 14.3864C88.7307 14.4691 88.4729 14.6096 88.2523 14.7987C88.0316 14.9879 87.8531 15.2213 87.7283 15.4841C87.6035 15.747 87.5353 16.0331 87.528 16.3241C87.528 19.0014 95.0766 18.9413 95.0766 23.5739C95.0866 26.943 92.767 28.2466 89.7676 28.2466Z" fill="white"/>
<path id="Vector_8" d="M106.444 25.7494H106.384C106.117 26.5317 105.598 27.2024 104.908 27.6547C104.217 28.107 103.396 28.3152 102.575 28.2461C99.3753 28.2461 98.4355 26.1705 98.4355 23.2325C98.4355 18.63 102.935 18.4194 106.434 18.5097C106.494 16.5041 106.524 14.3082 103.885 14.3082C103.537 14.2802 103.187 14.3341 102.864 14.4655C102.541 14.597 102.252 14.8024 102.022 15.0654C101.792 15.3284 101.626 15.6417 101.538 15.9802C101.45 16.3188 101.442 16.6734 101.515 17.0155H98.7655C98.8855 13.6163 100.685 12.4431 103.895 12.4431C107.794 12.4431 108.814 14.4485 108.814 17.0155V24.3255C108.823 25.5312 108.924 26.7345 109.114 27.9252H106.424V25.7494M100.865 23.4331C100.865 24.9071 101.585 26.2307 103.235 26.2307C104.734 26.2307 106.594 25.2981 106.354 20.3948C104.045 20.4348 100.895 20.2142 100.895 23.4331H100.865Z" fill="white"/>
<path id="Vector_9" d="M121.642 12.7644H124.102V29.48C124.102 32.8792 121.852 33.6914 118.523 33.6914C116.003 33.6914 113.733 32.428 113.933 29.6805H116.693C116.68 29.9827 116.732 30.2842 116.845 30.5645C116.958 30.845 117.13 31.0977 117.349 31.3058C117.568 31.514 117.829 31.6725 118.114 31.7711C118.399 31.8695 118.702 31.9054 119.002 31.8765C119.354 31.9102 119.709 31.8658 120.042 31.7465C120.375 31.6272 120.678 31.436 120.929 31.1861C121.18 30.9364 121.373 30.6342 121.494 30.3012C121.616 29.9682 121.663 29.6125 121.632 29.2594V26.0507H121.552C121.215 26.6345 120.729 27.1178 120.143 27.4508C119.558 27.784 118.895 27.9548 118.223 27.9458C114.113 27.9458 113.303 24.3961 113.303 19.924C113.303 12.9048 116.813 12.4937 118.043 12.4937C118.782 12.4533 119.516 12.6387 120.148 13.0254C120.78 13.4121 121.28 13.9819 121.582 14.6597H121.642V12.7644ZM118.762 14.5092C115.973 14.5092 115.883 17.8784 115.883 19.8838C115.883 24.7571 116.993 25.9002 118.822 25.9002C121.822 25.9002 121.702 22.3907 121.702 20.275C121.702 18.1591 121.852 14.5092 118.762 14.5092Z" fill="white"/>
<path id="Vector_10" d="M131.02 21.1473C131.02 25.3888 132.16 26.231 134.08 26.231C135.759 26.231 136.629 24.8775 136.719 23.3432H139.419C139.419 26.7125 137.319 28.2466 134.14 28.2466C130.96 28.2466 128.391 27.2439 128.391 20.5858C128.391 16.1336 128.9 12.4636 134.14 12.4636C138.459 12.4636 139.539 14.84 139.539 19.8538V21.1473H131.02ZM136.929 19.2822C136.929 14.8702 135.699 14.3288 133.93 14.3288C132.37 14.3288 131.08 15.0808 131.04 19.2822H136.929Z" fill="white"/>
<path id="Vector_11" d="M175.753 13.0048C174.426 10.8594 172.899 8.84494 171.194 6.98843C169.178 4.7177 167.016 2.58073 164.724 0.591007C164.277 0.20946 163.708 0 163.12 0C162.533 0 161.964 0.20946 161.515 0.591007C159.223 2.58073 157.063 4.7177 155.047 6.98843C153.34 8.84494 151.814 10.8594 150.487 13.0048C149.114 15.0611 148.323 17.4521 148.197 19.9237C148.213 23.6746 149.625 27.2841 152.157 30.0446C154.689 32.8049 158.159 34.5167 161.885 34.8443V38.6346C161.869 38.808 161.891 38.9826 161.945 39.1476C162.001 39.3124 162.091 39.4639 162.208 39.5924C162.324 39.7209 162.467 39.8234 162.626 39.8936C162.784 39.9637 162.956 40 163.13 40C163.303 40 163.475 39.9637 163.633 39.8936C163.792 39.8234 163.935 39.7209 164.052 39.5924C164.17 39.4639 164.258 39.3124 164.314 39.1476C164.37 38.9826 164.39 38.808 164.374 38.6346V34.8443C168.09 34.5026 171.544 32.7846 174.064 30.0257C176.584 27.2667 177.988 23.665 178.002 19.9237C177.887 17.4561 177.11 15.0657 175.753 13.0048ZM163.755 32.3776H162.505C159.307 32.233 156.289 30.858 154.077 28.5386C151.864 26.219 150.629 23.1334 150.628 19.9237C150.628 13.0349 163.064 2.45609 163.064 2.45609C163.064 2.45609 175.513 13.0349 175.513 19.9237C175.511 23.1236 174.285 26.2006 172.084 28.5186C169.885 30.8366 166.882 32.2181 163.695 32.3776H163.755Z" fill="white"/>
<path id="Vector_12" d="M168.073 17.4171C167.953 17.2432 167.785 17.1074 167.591 17.0256C167.395 16.9441 167.182 16.9198 166.973 16.9558L164.854 17.3168L165.353 8.65314C165.351 8.49354 165.312 8.3366 165.243 8.19277C165.175 8.04896 165.075 7.92156 164.953 7.81907C164.832 7.71659 164.689 7.64139 164.536 7.59847C164.383 7.55556 164.221 7.54591 164.064 7.57019C163.911 7.59886 163.765 7.6591 163.636 7.74713C163.506 7.83514 163.398 7.94901 163.315 8.08159L157.955 20.6558C157.845 20.8335 157.787 21.0384 157.787 21.2475C157.787 21.4565 157.845 21.6614 157.955 21.8391C158.075 22.0138 158.242 22.1502 158.437 22.2321C158.632 22.3139 158.847 22.3375 159.056 22.3004L161.124 21.9494L159.755 28.9484C159.756 29.1871 159.835 29.4186 159.979 29.6085C160.124 29.7984 160.325 29.9362 160.554 30.0012C160.654 30.0164 160.755 30.0164 160.854 30.0012H161.034C161.192 29.9759 161.342 29.9159 161.473 29.8258C161.605 29.7356 161.713 29.6175 161.795 29.4798L168.053 18.5401C168.171 18.3635 168.234 18.1559 168.234 17.9435C168.234 17.7311 168.171 17.5234 168.053 17.3468M166.693 18.2794L161.335 27.6549L162.594 20.2748L159.274 20.8464L163.934 9.8865L163.505 18.9211L166.693 18.2794Z" fill="white"/>
<path id="Vector_13" d="M180.751 25.0475C180.538 25.0448 180.326 25.0849 180.129 25.1656C179.93 25.2463 179.752 25.3659 179.6 25.5172C179.45 25.6686 179.33 25.8488 179.25 26.0471C179.17 26.2453 179.13 26.4578 179.133 26.6719C179.134 27.1019 179.306 27.5136 179.609 27.8176C179.912 28.1218 180.324 28.2936 180.751 28.2964C181.181 28.2964 181.593 28.1252 181.898 27.8205C182.201 27.5159 182.371 27.1028 182.371 26.6719C182.371 26.2411 182.201 25.8279 181.898 25.5232C181.593 25.2186 181.181 25.0475 180.751 25.0475ZM182.082 26.6719C182.079 27.0239 181.938 27.3605 181.689 27.6085C181.439 27.8563 181.103 27.9955 180.751 27.9955C180.402 27.9955 180.066 27.8561 179.819 27.6078C179.572 27.3596 179.432 27.0229 179.432 26.6719C179.432 26.3199 179.57 25.9822 179.818 25.7323C180.065 25.4826 180.401 25.3409 180.751 25.3382C181.104 25.3409 181.44 25.4822 181.689 25.7318C181.938 25.9813 182.079 26.3191 182.082 26.6719Z" fill="white"/>
<path id="Vector_14" d="M181.272 26.3512C181.276 26.2866 181.263 26.222 181.237 26.1627C181.211 26.1035 181.171 26.0513 181.121 26.0103C180.99 25.9276 180.837 25.889 180.681 25.9H180.242V27.4442H180.502V26.8225H180.751L181.111 27.4442H181.402L180.961 26.7623C181.053 26.7413 181.134 26.6885 181.191 26.6133C181.249 26.5382 181.276 26.4453 181.272 26.3512ZM180.681 26.6219H180.512V26.1206H180.681C180.767 26.1005 180.857 26.1005 180.941 26.1206C180.971 26.1423 180.996 26.171 181.011 26.2043C181.027 26.2376 181.034 26.2743 181.031 26.3112C181.033 26.3492 181.026 26.387 181.01 26.4217C180.994 26.4566 180.971 26.4873 180.941 26.5116C180.871 26.5789 180.778 26.618 180.681 26.6219Z" fill="white"/>
</g>
</svg>
