<svg width="137" height="45" viewBox="0 0 137 45" fill="none" xmlns="http://www.w3.org/2000/svg">
<g id="Group 3029">
<path id="Vector" d="M58.4777 23.4886C58.4777 29.9102 53.4542 34.6421 47.2891 34.6421C41.124 34.6421 36.1005 29.9102 36.1005 23.4886C36.1005 17.0219 41.124 12.3352 47.2891 12.3352C53.4542 12.3352 58.4777 17.0219 58.4777 23.4886ZM53.5799 23.4886C53.5799 19.4758 50.6683 16.7302 47.2891 16.7302C43.9099 16.7302 40.9983 19.4758 40.9983 23.4886C40.9983 27.4612 43.9099 30.2471 47.2891 30.2471C50.6683 30.2471 53.5799 27.4562 53.5799 23.4886Z" fill="white"/>
<path id="Vector_2" d="M83.2086 23.4886C83.2086 29.9102 78.185 34.6421 72.0199 34.6421C65.8549 34.6421 60.8313 29.9102 60.8313 23.4886C60.8313 17.0269 65.8549 12.3352 72.0199 12.3352C78.185 12.3352 83.2086 17.0219 83.2086 23.4886ZM78.3107 23.4886C78.3107 19.4758 75.3992 16.7302 72.0199 16.7302C68.6407 16.7302 65.7292 19.4758 65.7292 23.4886C65.7292 27.4612 68.6407 30.2471 72.0199 30.2471C75.3992 30.2471 78.3107 27.4562 78.3107 23.4886Z" fill="white"/>
<path id="Vector_3" d="M106.944 13.009V33.0329C106.944 41.2698 102.086 44.6339 96.3434 44.6339C90.9377 44.6339 87.6842 41.0183 86.4572 38.0615L90.7215 36.2864C91.4808 38.1018 93.3414 40.2439 96.3384 40.2439C100.014 40.2439 102.292 37.976 102.292 33.7068V32.1026H102.121C101.025 33.4553 98.913 34.637 96.2479 34.637C90.6712 34.637 85.5621 29.7794 85.5621 23.5289C85.5621 17.2331 90.6712 12.3352 96.2479 12.3352C98.908 12.3352 101.02 13.5169 102.121 14.8294H102.292V13.0141H106.944V13.009ZM102.639 23.5289C102.639 19.6015 100.019 16.7302 96.6854 16.7302C93.3062 16.7302 90.475 19.6015 90.475 23.5289C90.475 27.416 93.3062 30.2471 96.6854 30.2471C100.019 30.2471 102.639 27.416 102.639 23.5289Z" fill="white"/>
<path id="Vector_4" d="M114.074 1.27222V33.9581H109.297V1.27222H114.074Z" fill="white"/>
<path id="Vector_5" d="M132.987 27.1597L136.789 29.6941C135.562 31.5094 132.605 34.6372 127.496 34.6372C121.16 34.6372 116.428 29.7393 116.428 23.4838C116.428 16.851 121.2 12.3303 126.948 12.3303C132.736 12.3303 135.567 16.9365 136.492 19.4257L137 20.6929L122.09 26.868C123.232 29.1057 125.007 30.2472 127.496 30.2472C129.99 30.2472 131.72 29.0202 132.987 27.1597ZM121.286 23.1468L131.252 19.0083C130.704 17.6154 129.055 16.6449 127.114 16.6449C124.625 16.6449 121.16 18.8424 121.286 23.1468Z" fill="white"/>
<path id="Vector_6" d="M17.5649 20.5871V15.8552H33.5106C33.6665 16.6799 33.7469 17.6554 33.7469 18.7114C33.7469 22.2616 32.7764 26.6516 29.6486 29.7794C26.6063 32.9474 22.7192 34.637 17.5699 34.637C8.02564 34.637 0 26.8628 0 17.3185C0 7.77421 8.02564 0 17.5699 0C22.85 0 26.6113 2.07178 29.4374 4.77214L26.0984 8.11113C24.0719 6.21032 21.3263 4.73191 17.5649 4.73191C10.5953 4.73191 5.14426 10.3489 5.14426 17.3185C5.14426 24.2881 10.5953 29.9051 17.5649 29.9051C22.0856 29.9051 24.6603 28.0898 26.3096 26.4404C27.6472 25.1028 28.5272 23.1919 28.8742 20.5821L17.5649 20.5871Z" fill="white"/>
</g>
</svg>
