<svg width="175" height="41" viewBox="0 0 175 41" fill="none" xmlns="http://www.w3.org/2000/svg">
<g id="SR-Logo-8bde5922 2" clip-path="url(#clip0_2644_2117)">
<g id="SR_logo__Masiva">
<path id="Vector" d="M49.7079 24.38C49.7079 27.6026 47.4035 29.3757 43.2614 29.3757C39.1194 29.3757 36.815 27.552 36.815 24.2628H38.9831C38.9831 26.2948 40.4984 27.4187 43.2541 27.4187C46.0097 27.4187 47.525 26.3699 47.525 24.3792C47.525 19.4249 37.081 23.6549 37.081 16.6273C37.081 13.705 39.2972 12.0979 43.2541 12.0979C47.2109 12.0979 49.4272 13.7547 49.4272 16.7445H47.259C47.259 15.0127 45.8326 14.0549 43.2541 14.0549C40.6755 14.0549 39.2491 14.9874 39.2491 16.6282C39.2654 21.5741 49.7087 17.344 49.7087 24.38H49.7079ZM62.9557 23.0647C62.9557 26.5452 60.2237 29.3681 56.8553 29.3681C53.4868 29.3681 50.7711 26.5452 50.7711 23.0647C50.7711 19.5842 53.4868 16.7614 56.8553 16.7614C60.2237 16.7614 62.9557 19.5842 62.9557 23.0647ZM60.9247 23.0647C60.9247 20.6331 59.0952 18.6517 56.8553 18.6517C54.6153 18.6517 52.8103 20.6331 52.8103 23.0647C52.8103 25.4964 54.6153 27.4778 56.8553 27.4778C59.0952 27.4862 60.9247 25.4964 60.9247 23.0647ZM64.4711 12.0903H66.6392V28.9094H64.4711V12.0903ZM80.096 17.2276V28.9094H77.9278V27.3943C76.8882 28.6101 75.4374 29.3757 73.8103 29.3757C70.6915 29.3757 68.161 26.5528 68.161 23.0723C68.161 19.5918 70.6915 16.769 73.8103 16.769C75.4382 16.769 76.8882 17.543 77.9278 18.7504V17.2352H80.096V17.2268V17.2276ZM78.0576 23.0647C78.0576 20.6331 76.2925 18.6517 74.1252 18.6517C71.9579 18.6517 70.1929 20.6331 70.1929 23.0647C70.1929 25.4964 71.9579 27.4778 74.1252 27.4778C76.2925 27.4778 78.0576 25.4964 78.0576 23.0647ZM88.0096 16.7614V18.6517C85.431 18.6517 84.1172 20.1508 84.1172 23.0647V28.9018H81.9499V17.2285H84.1172V18.3945C85.0034 17.3204 86.309 16.7622 88.0096 16.7622V16.7614Z" fill="white"/>
<g id="Group">
<path id="Vector_2" d="M97.6793 22.6982L102.023 28.9096H99.468L95.2215 22.8398H91.8048V28.9096H89.6367V12.5568H95.4948C100.201 12.5568 102.256 14.1225 102.256 17.6941C102.248 20.683 100.822 22.2488 97.6793 22.6982ZM95.4875 20.8744C98.6789 20.8744 100.081 19.9166 100.081 17.6941C100.081 15.4715 98.6789 14.5137 95.4875 14.5137H91.8048V20.8668H95.4875V20.8753V20.8744ZM112.604 25.3128H114.756C114.756 25.3128 113.668 29.3759 109.285 29.3759C105.916 29.3759 103.2 26.553 103.2 23.0725C103.2 19.592 105.916 16.7692 109.285 16.7692C112.653 16.7692 115.159 19.7337 115.159 23.6804H105.28C105.529 25.8288 107.222 27.4856 109.285 27.4856C111.702 27.4856 112.605 25.3128 112.605 25.3128H112.604ZM105.416 21.7825H112.918C112.491 19.9588 111.016 18.6519 109.276 18.6519C107.446 18.6519 105.915 19.9588 105.416 21.7825ZM127.705 17.2278L122.999 28.9096H120.017L115.312 17.2278H117.528L121.508 26.8785L125.489 17.2278H127.705ZM128.471 13.1647C128.471 12.2988 129.124 11.6243 129.962 11.6243C130.8 11.6243 131.429 12.2988 131.429 13.1647C131.429 14.0306 130.776 14.6798 129.962 14.6798C129.149 14.6798 128.471 14.0053 128.471 13.1647ZM128.883 17.2278H131.051V28.9096H128.883V17.2278ZM141.969 25.3128H144.121C144.121 25.3128 143.033 29.3759 138.649 29.3759C135.281 29.3759 132.565 26.553 132.565 23.0725C132.565 19.592 135.281 16.7692 138.649 16.7692C142.018 16.7692 144.524 19.7337 144.524 23.6804H134.644C134.894 25.8288 136.586 27.4856 138.649 27.4856C141.067 27.4856 141.97 25.3128 141.97 25.3128H141.969ZM134.781 21.7825H142.283C141.856 19.9588 140.381 18.6519 138.64 18.6519C136.9 18.6519 135.28 19.9588 134.781 21.7825ZM164.081 17.2278L160.552 28.9096H157.497L154.491 19.259L151.485 28.9096H148.431L144.902 17.2278H147.053L150.083 26.8785L153.089 17.2278H155.918L158.899 26.8785L161.929 17.2278H164.081ZM175 25.6374C175 28.0437 173.122 29.3759 169.778 29.3759C166.434 29.3759 164.58 27.994 164.58 25.5455H166.749C166.749 26.9029 167.836 27.6441 169.778 27.6441C171.72 27.6441 172.833 26.9443 172.833 25.6374C172.833 22.2235 164.855 25.4038 164.855 20.1249C164.855 17.9765 166.62 16.7607 169.787 16.7607C172.953 16.7607 174.735 18.0179 174.735 20.2412H172.567C172.567 19.1173 171.575 18.4925 169.787 18.4925C167.998 18.4925 167.031 19.0752 167.031 20.1249C167.023 23.5556 175.001 20.3829 175.001 25.6374H175Z" fill="white"/>
</g>
<g id="Group_2">
<path id="Vector_3" d="M33.0026 19.3651C28.5407 18.1088 28.14 16.6131 31.4709 13.3838C31.6717 13.1899 31.5101 12.845 31.2384 12.8872C26.743 13.5794 25.8674 12.3864 27.7761 8.13859C27.8919 7.88059 27.6161 7.62258 27.3787 7.76845C23.4855 10.1613 22.2452 9.37886 22.4573 4.68674C22.4704 4.40345 22.1219 4.27192 21.9555 4.49788C19.1851 8.24989 17.7033 7.9902 16.0402 3.52489C15.9431 3.26435 15.58 3.28375 15.509 3.55271C14.2932 8.16388 12.8456 8.57871 9.71946 5.13614C9.53178 4.92873 9.19803 5.09567 9.23883 5.37644C9.90877 10.0213 8.75412 10.926 4.64308 8.95391C4.39338 8.83419 4.14368 9.11917 4.28485 9.36453C6.60068 13.388 5.84343 14.6688 1.30072 14.4495C1.02654 14.4361 0.899242 14.7961 1.11793 14.9681C4.74998 17.8373 4.50028 19.3676 0.179524 21.0809C-0.072622 21.1812 -0.0546699 21.5564 0.206452 21.6298C4.66919 22.8869 5.06904 24.3827 1.73565 27.6187C1.53573 27.8126 1.6973 28.1574 1.96903 28.1153C6.46522 27.4222 7.34733 28.6153 5.43461 32.8622C5.31792 33.1202 5.59454 33.3782 5.83119 33.2332C9.72272 30.842 10.9622 31.6245 10.7452 36.3149C10.7321 36.5982 11.0806 36.7297 11.247 36.5046C14.0231 32.7534 15.5041 33.0123 17.1614 37.4759C17.2585 37.7364 17.6217 37.7179 17.6927 37.4481C18.9093 32.8377 20.3618 32.4238 23.4888 35.8663C23.6764 36.0729 24.0102 35.9068 23.9694 35.626C23.2994 30.9811 24.4541 30.0705 28.5635 32.0469C28.8132 32.1674 29.0629 31.8816 28.9225 31.6371C26.6075 27.6145 27.3656 26.3346 31.9091 26.5538C32.1833 26.5673 32.3106 26.2081 32.0927 26.0352C28.4591 23.1601 28.7136 21.6289 33.0295 19.9148C33.2817 19.8145 33.2637 19.4393 33.0026 19.3659V19.3651Z" fill="#FFCB13"/>
<path id="Layer_3" d="M27.559 21.7876C28.2444 15.5399 23.8976 9.89583 17.8501 9.18759C11.8035 8.47934 6.34119 12.964 5.64921 19.2118C4.96377 25.4595 9.31064 31.1035 15.3581 31.8118C21.4047 32.5267 26.867 28.0353 27.559 21.7876Z" fill="white"/>
<g id="Clip path group">
<mask id="mask0_2644_2117" style="mask-type:luminance" maskUnits="userSpaceOnUse" x="6" y="10" width="21" height="21">
<g id="clippath">
<path id="Vector_4" d="M26.5267 21.666C27.1477 16.0068 23.2097 10.8948 17.7326 10.2532C12.2556 9.61155 7.30815 13.6738 6.68065 19.333C6.05966 24.9922 9.99771 30.1042 15.4748 30.7459C20.9518 31.3934 25.8992 27.3252 26.5267 21.666Z" fill="white"/>
</g>
</mask>
<g mask="url(#mask0_2644_2117)">
<g id="Group_3">
<path id="Vector_5" d="M51.0706 37.728L2.54512 54.6103L-3.66469 -1.62085L44.4977 6.38568L51.0706 37.728Z" fill="url(#paint0_linear_2644_2117)"/>
<path id="Vector_6" d="M26.752 2.13524L26.9845 3.47416L27.1608 4.48931L27.6977 7.5727L27.9066 8.77419L28.1171 9.98157L28.6361 12.9663L28.8499 14.1948L29.0645 15.4291L29.5957 18.4822L29.8144 19.7393L30.0348 21.0024L30.5913 24.2038L30.8157 25.4904L31.0401 26.7838L31.6105 30.0611L31.8398 31.379L32.0707 32.7027L32.6541 36.0593L32.8891 37.4092L33.125 38.7649L33.7239 42.2033L33.9638 43.5861L33.9793 43.6737L34.2062 44.9747M29.5558 46.7099L29.3232 45.2943L29.3077 45.1998L29.0645 43.7243L28.4688 40.1005L28.2273 38.6283L27.9907 37.1899L27.4097 33.658L27.1738 32.223L26.9429 30.82L26.3766 27.3757L26.1465 25.9761L25.9221 24.6085L25.3696 21.2486L25.1452 19.8835L24.9257 18.5488L24.3994 15.3507L24.1807 14.0177L23.9661 12.7151L23.4528 9.59288L23.2391 8.29191L23.0302 7.0196L22.4998 3.7954L22.3194 2.69847L22.0869 1.28367L22.0852 1.27271" stroke="white" stroke-width="0.276696" stroke-miterlimit="10"/>
<path id="Vector_7" d="M45.9934 10.6461L45.3773 10.5828L44.7498 10.5179L43.1145 10.3484L42.4413 10.2785L41.7551 10.2076L40.0521 10.0314L39.3136 9.95469L38.5767 9.87881L36.6926 9.68404L35.8806 9.59973L35.0703 9.51626L33.0018 9.3021L32.0976 9.20851L31.1935 9.11492L28.9103 8.87884L27.9066 8.77429L26.9021 8.67058L24.3374 8.40499L23.2391 8.29201L22.1122 8.17481L19.2414 7.87802L18.0076 7.75071L16.7396 7.61918L13.5123 7.28529L12.1038 7.13943L10.6538 6.98935L6.99644 6.61077L5.38972 6.44467L3.73241 6.27351L-0.952281 5.7887L-2.8038 5.59647L-2.86908 5.58972L-4.71652 5.39917" stroke="white" stroke-width="0.276696" stroke-miterlimit="10"/>
<path id="Vector_8" d="M24.2901 48.6408L24.0575 47.1256L24.042 47.0253L23.7997 45.4478L23.2048 41.5769L22.9632 40.0061L22.7274 38.4707L22.1489 34.7036L21.9139 33.1741L21.6837 31.68L21.1207 28.0123L20.8922 26.5233L20.6686 25.0681L20.1195 21.4965L19.8967 20.0463L19.6788 18.6289L19.1574 15.2336L18.9403 13.8196L18.7274 12.4377L18.219 9.12921L18.0076 7.75066L17.8004 6.40331L17.2765 2.9911L17.0978 1.83093L16.8677 0.334341L16.866 0.322537M18.2843 50.8254L18.0566 49.2141L18.0411 49.1053L17.7996 47.3963L17.2112 43.2429L16.9754 41.5727L16.7404 39.9117L16.17 35.8772L15.9399 34.255L15.7122 32.6412L15.1573 28.7206L14.9337 27.1431L14.7126 25.5756L14.1732 21.7638L13.9562 20.2301L13.7399 18.7048L13.2283 15.0877L13.0178 13.5954L12.808 12.1123L12.3095 8.59213L12.1038 7.13938L11.8998 5.69507L11.3874 2.07122L11.2144 0.852877L10.9883 -0.747417M11.3743 53.3573L11.1524 51.6154L11.1377 51.499L10.9019 49.6525L10.3306 45.1712L10.1005 43.3711L9.87205 41.5819L9.31798 37.2381L9.09521 35.4927L8.87407 33.7584L8.33632 29.546L8.1209 27.8521L7.90629 26.1701L7.38486 22.0833L7.17515 20.44L6.96706 18.8069L6.47256 14.936L6.26938 13.3407L6.06701 11.7556L5.5872 7.99518L5.38972 6.44463L5.19307 4.90336L4.7002 1.0409L4.53455 -0.258391L4.31667 -1.96155M41.3201 4.77435L41.5486 5.89574L41.7224 6.74816L42.2373 9.27507L42.4413 10.2784L42.647 11.286L43.1431 13.721L43.3512 14.7429L43.5601 15.769L44.0652 18.2495L44.2773 19.2917L44.4911 20.3372L45.0183 22.9282L45.2353 23.9897L45.4524 25.0563L45.9901 27.697L46.2105 28.7796L46.4324 29.8664L46.9808 32.5594L47.206 33.6631L47.4312 34.7718L47.991 37.518L48.2203 38.6436L48.235 38.7144L48.4504 39.7742M44.2724 5.31144L44.4977 6.38561L44.669 7.20262L45.1758 9.62161L45.3773 10.5828L45.5797 11.5465L46.0685 13.8761L46.2733 14.8533L46.4789 15.8348L46.9767 18.2057L47.1856 19.2014L47.3945 20.2006L47.9135 22.6752L48.1264 23.6895L48.3394 24.7072L48.8682 27.2274L49.0853 28.2602L49.3023 29.2964L49.8409 31.8638L50.0612 32.9161L50.2832 33.9725L50.8315 36.588L51.0567 37.6605L51.0706 37.7279L51.2819 38.7372M45.4173 40.8821L45.1978 39.7717L45.1831 39.6967L44.9538 38.5365L44.3793 35.6243L44.15 34.4624L43.9256 33.3267L43.3626 30.4735L43.1382 29.3352L42.9187 28.2223L42.3671 25.4264L42.1467 24.3118L41.9313 23.2207L41.3903 20.4805L41.1749 19.3878L40.9635 18.3178L40.447 15.6965L40.2348 14.6248L40.0284 13.576L39.5208 11.0061L39.3136 9.95465L39.1104 8.92601L38.5849 6.26167L38.4094 5.37383L38.1826 4.22294L38.1785 4.20186M42.0684 42.1081L41.8456 40.9378L41.831 40.8585L41.5984 39.6368L41.0133 36.5669L40.7808 35.3443L40.5531 34.1488L39.9819 31.1446L39.7542 29.9474L39.5314 28.7771L38.9717 25.8362L38.7481 24.665L38.5302 23.5192L37.9827 20.6399L37.764 19.4932L37.5502 18.3709L37.0263 15.6189L36.8125 14.4958L36.6036 13.3964L36.0903 10.7008L35.8806 9.59969L35.6758 8.52299L35.1446 5.73133L34.9675 4.80133L34.7382 3.59732L34.7341 3.5754M38.3515 43.4579L38.1279 42.2312L38.1124 42.1477L37.8741 40.8433L37.2825 37.6014L37.0483 36.3207L36.8158 35.0459L36.2372 31.8765L36.0087 30.6252L35.7811 29.3791L35.2148 26.2797L34.9912 25.0563L34.7692 23.8371L34.216 20.8068L33.9973 19.6095L33.7794 18.4173L33.2515 15.5245L33.0368 14.3525L32.8247 13.1873L32.3073 10.3551L32.0976 9.20847L31.8895 8.066L31.3542 5.13691L31.178 4.1715L30.9454 2.89751L30.943 2.88486M2.82583 56.5073L2.61367 54.5858L2.59898 54.4585L2.37866 52.4602L1.83765 47.57L1.61896 45.5903L1.40516 43.6586L0.882102 38.9311L0.670756 37.0163L0.464306 35.1487L-0.0416178 30.5755L-0.246436 28.7231L-0.446357 26.9154L-0.935145 22.4906L-1.13344 20.6972L-1.32683 18.9477L-1.7895 14.7656L-1.98208 13.0288L-2.16895 11.3332L-2.61694 7.28103L-2.8038 5.59642L-2.98495 3.95313L-3.44437 -0.201058L-3.60022 -1.6108L-3.80096 -3.4261L-3.80259 -3.44043" stroke="white" stroke-width="0.276696" stroke-miterlimit="10"/>
<path id="Vector_9" d="M46.8861 14.8769L46.2733 14.8532L45.6482 14.8296L44.0211 14.7681L43.3512 14.7428L42.6674 14.7167L40.9709 14.6526L40.2348 14.6248L39.5013 14.5969L37.622 14.5261L36.8125 14.4958L36.0038 14.4646L33.9394 14.387L33.0368 14.3524L32.1343 14.3187L29.8528 14.2327L28.8499 14.1947L27.8454 14.1568L25.2791 14.059L24.1807 14.0177L23.053 13.9755L20.1766 13.8668L18.9403 13.8195L17.6698 13.7715L14.4311 13.6492L13.0178 13.5953L11.5612 13.5405L7.88507 13.4013L6.26938 13.3406L4.60228 13.2774L-0.116692 13.0987L-1.98208 13.0287L-2.04736 13.0261L-3.91031 12.9553M47.7943 19.1828L47.1856 19.2014L46.5638 19.2207L44.9448 19.2705L44.2773 19.2916L43.5968 19.3127L41.9077 19.3649L41.1749 19.3877L40.4429 19.4096L38.5718 19.4678L37.764 19.4931L36.9569 19.5175L34.8973 19.5816L33.9973 19.6094L33.0956 19.6373L30.8173 19.7081L29.8144 19.7393L28.8107 19.7705L26.2444 19.8497L25.1452 19.8835L24.0159 19.9189L21.1362 20.0074L19.8967 20.0462L18.6221 20.0858L15.3744 20.1862L13.9562 20.23L12.4939 20.2755L8.79981 20.3894L7.17515 20.4399L5.49743 20.4922L0.746643 20.6389L-1.13344 20.6971L-1.20035 20.6988L-3.07961 20.757M48.7319 23.6262L48.1264 23.6894L47.5087 23.7535L45.8987 23.9205L45.2353 23.9896L44.558 24.0604L42.8763 24.2349L42.1467 24.3117L41.4181 24.3876L39.5535 24.5815L38.7481 24.665L37.9443 24.7484L35.8904 24.9626L34.9912 25.0562L34.0919 25.1498L31.8169 25.3867L30.8157 25.4904L29.812 25.5949L27.2465 25.8622L26.1465 25.976L25.0163 26.0941L22.1342 26.3942L20.8922 26.5232L19.6152 26.6565L16.3577 26.9954L14.9337 27.143L13.4657 27.2964L9.75454 27.6826L8.1209 27.852L6.43339 28.0283L1.64915 28.5257L-0.246437 28.723L-0.313349 28.7298L-2.20812 28.9271M49.6866 28.1514L49.0853 28.2601L48.4708 28.3706L46.8706 28.6606L46.2105 28.7795L45.5373 28.9018L43.8644 29.2045L43.1382 29.3351L42.4128 29.4667L40.5555 29.8022L39.7542 29.9473L38.9521 30.0923L36.9047 30.4633L36.0087 30.6252L35.1111 30.787L32.8402 31.1977L31.8398 31.3789L30.8377 31.5602L28.2738 32.0239L27.1738 32.2229L26.0429 32.427L23.1575 32.9489L21.9139 33.174L20.6344 33.4059L17.3687 33.9961L15.9399 34.2549L14.4662 34.5213L10.7386 35.195L9.09521 35.4926L7.39791 35.7996L2.58103 36.6705L0.670755 37.0162L0.603026 37.0289L-1.30806 37.3737M50.6585 32.76L50.0612 32.916L49.4516 33.0762L47.8612 33.4919L47.206 33.663L46.536 33.8384L44.8722 34.2735L44.15 34.4623L43.4287 34.6512L41.5788 35.1352L40.7807 35.3443L39.9827 35.5525L37.9419 36.0871L37.0483 36.3206L36.1532 36.555L33.8871 37.1477L32.8891 37.4091L31.8887 37.6705L29.3265 38.3408L28.2273 38.6283L27.0971 38.9243L24.2085 39.6797L22.9632 40.006L21.6821 40.3407L18.4083 41.1974L16.9754 41.5726L15.496 41.9596L11.7521 42.9385L10.1005 43.371L8.39344 43.817L3.5431 45.086L1.61895 45.5902L1.55041 45.6079L-0.375366 46.1112M51.6491 37.4547L51.0567 37.6604L50.4512 37.8703L48.8723 38.4175L48.2203 38.6435L47.5552 38.8745L45.9012 39.4479L45.1831 39.6966L44.465 39.9453L42.6249 40.5836L41.8309 40.8584L41.0362 41.1341L39.0027 41.839L38.1124 42.1476L37.2197 42.457L34.9602 43.2403L33.9638 43.586L32.965 43.9317L30.406 44.8187L29.3077 45.1998L28.1775 45.5919L25.288 46.5935L24.042 47.0252L22.7592 47.4696L19.4781 48.6078L18.0411 49.1053L16.5568 49.6196L12.7974 50.9231L11.1377 51.499L9.42079 52.0934L4.53863 53.7864L2.59898 54.4584L2.53043 54.482L0.588338 55.1557" stroke="white" stroke-width="0.276696" stroke-miterlimit="10"/>
<path id="Vector_10" d="M5.5872 7.99514L3.73241 6.27259L5.19307 4.90332L6.99644 6.6107L5.5872 7.99514ZM6.47338 14.9368L4.60228 13.2775L6.06701 11.7547L7.88507 13.4014L6.47338 14.9368ZM7.38486 22.0833L5.49744 20.4914L6.96706 18.8068L8.79982 20.3894L7.38486 22.0833ZM8.33714 29.546L6.4334 28.0275L7.90629 26.17L9.75454 27.6818L8.33714 29.546ZM9.31798 37.238L7.39792 35.7996L8.87407 33.7584L10.7378 35.1951L9.31798 37.238ZM-0.935145 22.4905L-3.0943 20.773L-1.32683 18.9476L0.763781 20.6533L-0.935145 22.4905ZM-0.0416176 30.5755L-2.22362 28.9448L-0.446357 26.9154L1.66628 28.5401L-0.0416176 30.5755ZM0.882918 38.9311L-1.32356 37.394L0.464306 35.1487L2.59816 36.6841L0.882918 38.9311ZM12.3095 8.59209L10.6538 6.98927L11.8998 5.69504L13.5123 7.28437L12.3095 8.59209ZM13.2283 15.0885L11.5612 13.5405L12.8072 12.1122L14.4311 13.6493L13.2283 15.0885ZM14.1732 21.7637L12.4939 20.2747L13.7399 18.7056L15.3744 20.1854L14.1732 21.7637ZM15.1573 28.7205L13.4657 27.2956L14.7118 25.5756L16.3577 26.9946L15.1573 28.7205ZM16.1692 35.8772L14.4662 34.5206L15.7114 32.642L17.3687 33.9961L16.1692 35.8772ZM18.219 9.12833L16.7306 7.63006L17.8004 6.40328L19.2537 7.89059L18.219 9.12833ZM19.1574 15.2336L17.66 13.7833L18.7282 12.4385L20.1888 13.8786L19.1574 15.2336ZM20.1195 21.4965L18.6131 20.0985L19.6788 18.6289L21.1485 20.0193L20.1195 21.4965ZM21.1207 28.0123L19.6062 26.67L20.6686 25.068L22.1456 26.4053L21.1207 28.0123ZM22.1489 34.7035L20.6254 33.4211L21.6846 31.68L23.1697 32.9599L22.1489 34.7035ZM23.4529 9.59291L22.104 8.18485L23.0302 7.01962L24.348 8.41672L23.4529 9.59291ZM22.4998 3.79543L21.1574 2.34521L22.0869 1.28369L23.399 2.7221L22.4998 3.79543ZM24.3994 15.3508L23.0449 13.9865L23.9661 12.7151L25.2905 14.0709L24.3994 15.3508ZM25.3697 21.2486L24.0077 19.9307L24.9257 18.5488L26.2558 19.8608L25.3697 21.2486ZM26.3766 27.3757L25.009 26.1068L25.9221 24.6085L27.2579 25.8724L26.3766 27.3757ZM27.4097 33.658L26.0355 32.4414L26.9429 30.82L28.2852 32.0341L27.4097 33.658ZM28.4688 40.1005L27.089 38.9395L27.9907 37.19L29.3379 38.351L28.4688 40.1005ZM28.131 9.99677L26.9021 8.6705L27.7067 7.56008L28.9103 8.87792L28.131 9.99677ZM27.1755 4.50536L25.9515 3.1403L26.7609 2.12347L27.9597 3.4784L27.1755 4.50536ZM29.0792 15.4444L27.8454 14.1569L28.6451 12.952L29.8528 14.2327L29.0792 15.4444ZM30.0486 21.0167L28.8108 19.7697L29.6047 18.467L30.8173 19.7081L30.0486 21.0167ZM31.0548 26.7973L29.812 25.595L30.6003 24.1878L31.8169 25.3859L31.0548 26.7973ZM32.0846 32.7162L30.8377 31.5603L31.6194 30.0434L32.8402 31.1977L32.0846 32.7162ZM33.1397 38.7776L31.8887 37.6706L32.6631 36.0408L33.8871 37.1478L33.1397 38.7776ZM32.3196 10.3694L31.1935 9.11484L31.8969 8.05501L33.0018 9.30118L32.3196 10.3694ZM31.3673 5.15121L30.2445 3.86288L30.9536 2.88651L32.0544 4.16725L31.3673 5.15121ZM33.2637 15.5388L32.1343 14.3187L32.832 13.1738L33.9394 14.387L33.2637 15.5388ZM34.2282 20.8203L33.0956 19.6373L33.7876 18.4038L34.8974 19.5817L34.2282 20.8203ZM35.2278 26.2931L34.092 25.1498L34.7766 23.8227L35.8904 24.9626L35.2278 26.2931ZM36.2495 31.8891L35.1103 30.7871L35.7884 29.363L36.9047 30.4625L36.2495 31.8891ZM37.2948 37.6132L36.1532 36.5551L36.8231 35.029L37.9419 36.0871L37.2948 37.6132Z" fill="white"/>
</g>
</g>
</g>
</g>
</g>
</g>
<defs>
<linearGradient id="paint0_linear_2644_2117" x1="49.8973" y1="20.7027" x2="-18.7569" y2="28.0829" gradientUnits="userSpaceOnUse">
<stop offset="0.11" stop-color="#00A3FF"/>
<stop offset="0.38" stop-color="#00A0FB"/>
<stop offset="0.63" stop-color="#0096F0"/>
<stop offset="0.87" stop-color="#0087DD"/>
<stop offset="1" stop-color="#007DD1"/>
</linearGradient>
<clipPath id="clip0_2644_2117">
<rect width="175" height="41" fill="white"/>
</clipPath>
</defs>
</svg>
